<?xml version="1.0" encoding="UTF-8"?>
<svg width="30px" height="30px" viewBox="0 0 30 30" version="1.1" xmlns="http://www.w3.org/2000/svg" xmlns:xlink="http://www.w3.org/1999/xlink">
    <!-- Generator: Sketch 51.2 (57519) - http://www.bohemiancoding.com/sketch -->
    <title>ddqr_yue</title>
    <desc>Created with Sketch.</desc>
    <defs>
        <filter x="-1.1%" y="-0.8%" width="102.2%" height="102.2%" filterUnits="objectBoundingBox" id="filter-1">
            <feOffset dx="0" dy="2" in="SourceAlpha" result="shadowOffsetOuter1"></feOffset>
            <feGaussianBlur stdDeviation="2" in="shadowOffsetOuter1" result="shadowBlurOuter1"></feGaussianBlur>
            <feColorMatrix values="0 0 0 0 0.6   0 0 0 0 0.6   0 0 0 0 0.6  0 0 0 0.5 0" type="matrix" in="shadowBlurOuter1" result="shadowMatrixOuter1"></feColorMatrix>
            <feMerge>
                <feMergeNode in="shadowMatrixOuter1"></feMergeNode>
                <feMergeNode in="SourceGraphic"></feMergeNode>
            </feMerge>
        </filter>
    </defs>
    <g id="登录、在途监控" stroke="none" stroke-width="1" fill="none" fill-rule="evenodd">
        <g id="03在线下单-01确认下单并支付-copy" transform="translate(-1343.000000, -448.000000)">
            <g id="Group-8" filter="url(#filter-1)" transform="translate(1260.000000, 74.000000)">
                <g id="Group-11" transform="translate(39.000000, 327.000000)">
                    <g id="余额支付" transform="translate(20.000000, 44.000000)">
                        <g id="ddqr_yue" transform="translate(28.000000, 5.000000)">
                            <rect id="Rectangle-7" fill="#EE383D" x="0" y="0" width="22" height="22" rx="4"></rect>
                            <path d="M5.82886598,11.2852328 C4.90103093,10.9097491 4.32371134,10.4164274 4.32371134,9.99900137 L4.32371134,7.22082137 C4.9628866,7.62027213 5.82680412,7.95181625 6.82886598,8.17550868 C7.81443299,8.39720384 8.91134021,8.51504182 10,8.51504182 C11.0886598,8.51504182 12.185567,8.39720384 13.171134,8.17550868 C14.1731959,7.949819 15.0371134,7.62027213 15.6762887,7.22082137 L15.6762887,8.77468481 L17,8.77468481 L17,5.25752091 C17,4.2728748 16.2247423,3.43203096 14.7608247,2.82886032 C13.4845361,2.30158532 11.7484536,2 10,2 C8.25154639,2 6.51546392,2.30158532 5.23917526,2.82886032 C3.77319588,3.43203096 3,4.2728748 3,5.25752091 L3,14.7424791 C3,15.7271252 3.77525773,16.567969 5.23917526,17.1711397 C6.51752577,17.6984147 8.25154639,18 10,18 L10.0412371,18 L10.0412371,16.7177631 L10,16.7177631 C8.41030928,16.7177631 6.92783505,16.4721009 5.82886598,16.0287105 C4.90103093,15.6532268 4.32371134,15.1599051 4.32371134,14.7424791 L4.32371134,11.9642991 C4.9628866,12.3657471 5.82680412,12.695294 6.82886598,12.9189864 C7.81443299,13.1406816 8.91134021,13.2585195 10,13.2585195 L10.0412371,13.2585195 L10.0412371,11.9742854 L10,11.9742854 C8.41030928,11.9742854 6.92783505,11.7306204 5.82886598,11.2852328 Z M4.32371134,5.25752091 C4.32371134,4.84009487 4.90103093,4.34677319 5.82886598,3.97128948 C6.92783505,3.52590188 8.41030928,3.28223692 10,3.28223692 C11.5896907,3.28223692 13.0721649,3.52789914 14.171134,3.97128948 C15.0989691,4.34677319 15.6762887,4.84009487 15.6762887,5.25752091 C15.6762887,5.67494695 15.0989691,6.16826863 14.171134,6.54375234 C13.0721649,6.98714268 11.5917526,7.23280489 10,7.23280489 C8.41030928,7.23280489 6.92783505,6.98714268 5.82886598,6.54375234 C4.90103093,6.16826863 4.32371134,5.67494695 4.32371134,5.25752091 Z" id="Shape" fill="#FFFFFF" fill-rule="nonzero"></path>
                            <path d="M15.5,9 C12.5457118,9 11,10.1965415 11,11.3787653 L11,17.6212347 C11,18.8034585 12.5457118,20 15.5,20 C16.8556813,20 18.0076186,19.7484195 18.830431,19.2718483 C19.5552895,18.8525474 19.9686548,18.2900707 19.9980409,17.6887319 L20,17.6887319 L20,11.3787653 C20,10.1965415 18.4542882,9 15.5,9 Z M18.7422725,17.6191893 C18.7422725,17.7664559 18.4660427,18.032354 17.9370919,18.2593901 C17.482586,18.4537003 16.6911189,18.6848271 15.5,18.6848271 C14.3088811,18.6848271 13.517414,18.4537003 13.0629081,18.2593901 C12.5339573,18.0343994 12.2577275,17.7664559 12.2577275,17.6191893 L12.2577275,16.1976571 C13.0746626,16.6415024 14.1932956,16.87672 15.5,16.87672 C16.8067044,16.87672 17.9253374,16.6415024 18.7422725,16.1976571 L18.7422725,17.6191893 Z M18.7422725,14.5 C18.7422725,14.6472666 18.4660427,14.9131647 17.9370919,15.1402008 C17.4865041,15.3324656 16.7067915,15.561547 15.5333043,15.5656378 L15.5,15.5656378 C14.3088811,15.5656378 13.517414,15.334511 13.0629081,15.1402008 C12.5339573,14.9152101 12.2577275,14.6472666 12.2577275,14.5 L12.2577275,13.0764225 C13.0746626,13.5223131 14.1932956,13.7554853 15.5,13.7554853 C16.8067044,13.7554853 17.9253374,13.5202678 18.7422725,13.0764225 L18.7422725,14.5 Z M17.9370919,12.0169208 C17.482586,12.2112309 16.6911189,12.4423578 15.5,12.4423578 C14.3088811,12.4423578 13.517414,12.2112309 13.0629081,12.0169208 C12.5339573,11.7919301 12.2577275,11.5239866 12.2577275,11.37672 C12.2577275,11.2294533 12.5339573,10.9635552 13.0629081,10.7365192 C13.517414,10.542209 14.3088811,10.3110822 15.5,10.3110822 C16.6911189,10.3110822 17.482586,10.542209 17.9370919,10.7365192 C18.4660427,10.9615099 18.7422725,11.2294533 18.7422725,11.37672 C18.7422725,11.526032 18.4660427,11.7919301 17.9370919,12.0169208 Z" id="Shape" fill="#FFFFFF" fill-rule="nonzero"></path>
                        </g>
                    </g>
                </g>
            </g>
        </g>
    </g>
</svg>