<?xml version="1.0" encoding="UTF-8"?>
<svg width="35px" height="35px" viewBox="0 0 35 35" version="1.1" xmlns="http://www.w3.org/2000/svg" xmlns:xlink="http://www.w3.org/1999/xlink">
    <!-- Generator: Sketch 51.2 (57519) - http://www.bohemiancoding.com/sketch -->
    <title>yue</title>
    <desc>Created with Sketch.</desc>
    <defs></defs>
    <g id="用户中心" stroke="none" stroke-width="1" fill="none" fill-rule="evenodd">
        <g id="08管理中心-copy" transform="translate(-749.000000, -152.000000)" fill-rule="nonzero">
            <g id="个人板块" transform="translate(200.000000, 64.000000)">
                <g id="Group-4" transform="translate(400.000000, 30.000000)">
                    <g id="Group-3" transform="translate(74.000000, 58.000000)">
                        <g id="yue" transform="translate(76.000000, 0.000000)">
                            <ellipse id="Oval-4" stroke="#FFFFFF" stroke-width="2.59459459" cx="16.4324324" cy="17.3684211" rx="15.5675676" ry="15.6315789"></ellipse>
                            <path d="M19.7738852,14.1960512 L22.896781,11.0606636 C23.1568071,10.7996332 23.3028937,10.4455611 23.3028937,10.0763626 C23.3028937,9.707164 23.1568071,9.3530919 22.896781,9.09206158 C22.6368196,8.83096628 22.2841974,8.684279 21.9165107,8.684279 C21.548824,8.684279 21.1962018,8.83096628 20.9362404,9.09206158 L16.3945416,13.6524352 L11.8472829,9.08647888 C11.590954,8.82892024 11.2431924,8.68421053 10.8805648,8.68421053 C10.5179372,8.68421053 10.1701755,8.82892024 9.91384662,9.08647888 C9.38006915,9.62263038 9.38006915,10.4917136 9.91384662,11.0278652 L13.0694065,14.1960512 L11.1262404,14.1960512 C10.358586,14.1960512 9.73627905,14.820917 9.73627905,15.5917279 C9.73627905,16.3625389 10.358586,16.9874046 11.1262404,16.9874046 L15.0181323,16.9874046 L15.0181323,19.2204873 L11.1262404,19.2204873 C10.358586,19.2204873 9.73627905,19.8453531 9.73627905,20.616164 C9.73627905,21.386975 10.358586,22.0118407 11.1262404,22.0118407 L15.0181323,22.0118407 L15.0181323,26.2543489 C15.0181323,27.0251599 15.6404392,27.6500256 16.4080937,27.6500256 C17.1757482,27.6500256 17.7980551,27.0251599 17.7980551,26.2543489 L17.7980551,22.0118407 L21.689947,22.0118407 C22.4576015,22.0118407 23.0799084,21.386975 23.0799084,20.616164 C23.0799084,19.8453531 22.4576015,19.2204873 21.689947,19.2204873 L17.7980551,19.2204873 L17.7980551,16.9874046 L21.689947,16.9874046 C22.4576015,16.9874046 23.0799084,16.3625389 23.0799084,15.5917279 C23.0799084,14.820917 22.4576015,14.1960512 21.689947,14.1960512 L19.7738852,14.1960512 Z" id="Shape" fill="#FFFFFF"></path>
                        </g>
                    </g>
                </g>
            </g>
        </g>
    </g>
</svg>