<?xml version="1.0" encoding="UTF-8"?>
<svg width="28px" height="30px" viewBox="0 0 28 30" version="1.1" xmlns="http://www.w3.org/2000/svg" xmlns:xlink="http://www.w3.org/1999/xlink">
    <!-- Generator: Sketch 51.2 (57519) - http://www.bohemiancoding.com/sketch -->
    <title>youhuij</title>
    <desc>Created with Sketch.</desc>
    <defs></defs>
    <g id="用户中心" stroke="none" stroke-width="1" fill="none" fill-rule="evenodd">
        <g id="08管理中心-copy" transform="translate(-1180.000000, -156.000000)" fill="#FFFFFF" fill-rule="nonzero">
            <g id="个人板块" transform="translate(200.000000, 64.000000)">
                <g id="Group-4-Copy" transform="translate(829.000000, 29.000000)">
                    <g id="Group-3" transform="translate(95.000000, 63.000000)">
                        <g id="youhuij" transform="translate(56.000000, 0.000000)">
                            <path d="M4.59,15.6208054 C3.09,14.9899329 2.15666667,14.1610738 2.15666667,13.4597315 L2.15666667,8.79194631 C3.19,9.46308725 4.58666667,10.0201342 6.20666667,10.3959732 C7.8,10.7684564 9.57333333,10.966443 11.3333333,10.966443 C13.0933333,10.966443 14.8666667,10.7684564 16.46,10.3959732 C18.08,10.0167785 19.4766667,9.46308725 20.51,8.79194631 L20.51,11.4026846 L22.65,11.4026846 L22.65,5.49328859 C22.65,3.83892617 21.3966667,2.4261745 19.03,1.41275168 C16.9666667,0.526845638 14.16,0.0201342282 11.3333333,0.0201342282 C8.50666667,0.0201342282 5.7,0.526845638 3.63666667,1.41275168 C1.26666667,2.4261745 0.0166666667,3.83892617 0.0166666667,5.49328859 L0.0166666667,21.4295302 C0.0166666667,23.0838926 1.27,24.4966443 3.63666667,25.5100671 C5.70333333,26.3959732 8.50666667,26.9026846 11.3333333,26.9026846 L11.4,26.9026846 L11.4,24.7483221 L11.3333333,24.7483221 C8.76333333,24.7483221 6.36666667,24.3355705 4.59,23.590604 C3.09,22.9597315 2.15666667,22.1308725 2.15666667,21.4295302 L2.15666667,16.761745 C3.19,17.4362416 4.58666667,17.9899329 6.20666667,18.3657718 C7.8,18.738255 9.57333333,18.9362416 11.3333333,18.9362416 L11.4,18.9362416 L11.4,16.7785235 L11.3333333,16.7785235 C8.76333333,16.7785235 6.36666667,16.3691275 4.59,15.6208054 Z M2.15666667,5.49328859 C2.15666667,4.79194631 3.09,3.96308725 4.59,3.33221477 C6.36666667,2.58389262 8.76333333,2.17449664 11.3333333,2.17449664 C13.9033333,2.17449664 16.3,2.58724832 18.0766667,3.33221477 C19.5766667,3.96308725 20.51,4.79194631 20.51,5.49328859 C20.51,6.19463087 19.5766667,7.02348993 18.0766667,7.65436242 C16.3,8.39932886 13.9066667,8.81208054 11.3333333,8.81208054 C8.76333333,8.81208054 6.36666667,8.39932886 4.59,7.65436242 C3.09,7.02348993 2.15666667,6.19463087 2.15666667,5.49328859 Z" id="Shape"></path>
                            <path d="M20.3266667,11.9362416 C15.3,11.9362416 12.67,13.8993289 12.67,15.8389262 L12.67,26.0805369 C12.67,28.0201342 15.3,29.9832215 20.3266667,29.9832215 C22.6333333,29.9832215 24.5933333,29.5704698 25.9933333,28.7885906 C27.2266667,28.1006711 27.93,27.1778523 27.98,26.1912752 L27.9833333,26.1912752 L27.9833333,15.8389262 C27.9833333,13.8993289 25.3533333,11.9362416 20.3266667,11.9362416 Z M25.8433333,26.0771812 C25.8433333,26.3187919 25.3733333,26.7550336 24.4733333,27.1275168 C23.7,27.4463087 22.3533333,27.8255034 20.3266667,27.8255034 C18.3,27.8255034 16.9533333,27.4463087 16.18,27.1275168 C15.28,26.7583893 14.81,26.3187919 14.81,26.0771812 L14.81,23.7449664 C16.2,24.4731544 18.1033333,24.8590604 20.3266667,24.8590604 C22.55,24.8590604 24.4533333,24.4731544 25.8433333,23.7449664 L25.8433333,26.0771812 Z M25.8433333,20.9597315 C25.8433333,21.2013423 25.3733333,21.6375839 24.4733333,22.0100671 C23.7066667,22.3255034 22.38,22.7013423 20.3833333,22.7080537 L20.3266667,22.7080537 C18.3,22.7080537 16.9533333,22.3288591 16.18,22.0100671 C15.28,21.6409396 14.81,21.2013423 14.81,20.9597315 L14.81,18.6241611 C16.2,19.3557047 18.1033333,19.738255 20.3266667,19.738255 C22.55,19.738255 24.4533333,19.352349 25.8433333,18.6241611 L25.8433333,20.9597315 Z M24.4733333,16.885906 C23.7,17.204698 22.3533333,17.5838926 20.3266667,17.5838926 C18.3,17.5838926 16.9533333,17.204698 16.18,16.885906 C15.28,16.5167785 14.81,16.0771812 14.81,15.8355705 C14.81,15.5939597 15.28,15.1577181 16.18,14.7852349 C16.9533333,14.466443 18.3,14.0872483 20.3266667,14.0872483 C22.3533333,14.0872483 23.7,14.466443 24.4733333,14.7852349 C25.3733333,15.1543624 25.8433333,15.5939597 25.8433333,15.8355705 C25.8433333,16.0805369 25.3733333,16.5167785 24.4733333,16.885906 Z" id="Shape"></path>
                        </g>
                    </g>
                </g>
            </g>
        </g>
    </g>
</svg>