<?xml version="1.0" encoding="UTF-8"?>
<svg width="32px" height="26px" viewBox="0 0 32 26" version="1.1" xmlns="http://www.w3.org/2000/svg" xmlns:xlink="http://www.w3.org/1999/xlink">
    <!-- Generator: Sketch 51.2 (57519) - http://www.bohemiancoding.com/sketch -->
    <title>youhuiq</title>
    <desc>Created with Sketch.</desc>
    <defs></defs>
    <g id="用户中心" stroke="none" stroke-width="1" fill="none" fill-rule="evenodd">
        <g id="08管理中心-copy" transform="translate(-1609.000000, -162.000000)" fill="#FFFFFF" fill-rule="nonzero">
            <g id="个人板块" transform="translate(200.000000, 64.000000)">
                <g id="Group-4-Copy-2" transform="translate(1259.000000, 30.000000)">
                    <g id="Group-3" transform="translate(139.000000, 68.000000)">
                        <g id="youhuiq" transform="translate(11.000000, 0.000000)">
                            <path d="M30.2590625,9.271875 C31.2678125,9.0728125 32,8.169375 32,7.1234375 L32,2.2 C31.9986223,0.985544677 31.0144553,0.00137771582 29.8,0 L2.2,0 C0.985544677,0.00137771582 0.00137771582,0.985544677 0,2.2 L0,7.1234375 C0,8.169375 0.7321875,9.073125 1.7409375,9.271875 C3.51899985,9.62615457 4.79938836,11.1868298 4.79938836,12.9998438 C4.79938836,14.8128577 3.51899985,16.3735329 1.7409375,16.7278125 C0.7321875,16.9271875 0,17.830625 0,18.8765625 L0,23.8 C0.00137771582,25.0144553 0.985544677,25.9986223 2.2,26 L29.8,26 C31.0144553,25.9986223 31.9986223,25.0144553 32,23.8 L32,18.8765625 C32,17.830625 31.2678125,16.926875 30.2590625,16.728125 C28.4810002,16.3738454 27.2006116,14.8131702 27.2006116,13.0001562 C27.2006116,11.1871423 28.4810002,9.62646707 30.2590625,9.2721875 L30.2590625,9.271875 Z M29.871875,18.6903125 C29.94375,18.704375 30,18.78625 30,18.8778125 L30,23.8 C29.9998279,23.9103856 29.9103856,23.9998279 29.8,24 L2.2,24 C2.0896144,23.9998279 2.00017207,23.9103856 2,23.8 L2,18.8765625 C2,18.78625 2.05625,18.704375 2.128125,18.6890625 C4.835,18.15625 6.8,15.763125 6.8,13 C6.8,10.236875 4.835,7.84375 2.128125,7.3096875 C2.05625,7.295625 2,7.21375 2,7.1221875 L2,2.2 C2.00017207,2.0896144 2.0896144,2.00017207 2.2,2 L29.8,2 C29.9103856,2.00017207 29.9998279,2.0896144 30,2.2 L30,7.1234375 C30,7.21375 29.94375,7.295625 29.871875,7.3109375 C27.165,7.84375 25.2,10.236875 25.2,13 C25.2,15.763125 27.165,18.15625 29.871875,18.6903125 Z" id="Shape"></path>
                            <path d="M20.8,9 L11.2,9 C10.6477153,9 10.2,9.44771525 10.2,10 C10.2,10.5522847 10.6477153,11 11.2,11 L20.8,11 C21.3522847,11 21.8,10.5522847 21.8,10 C21.8,9.44771525 21.3522847,9 20.8,9 Z M20.8,15 L11.2,15 C10.6477153,15 10.2,15.4477153 10.2,16 C10.2,16.5522847 10.6477153,17 11.2,17 L20.8,17 C21.3522847,17 21.8,16.5522847 21.8,16 C21.8,15.4477153 21.3522847,15 20.8,15 Z" id="Shape"></path>
                        </g>
                    </g>
                </g>
            </g>
        </g>
    </g>
</svg>